<?xml version="1.0" encoding="utf-8"?>
<!-- Generator: Adobe Illustrator 25.4.1, SVG Export Plug-In . SVG Version: 6.00 Build 0)  -->
<svg version="1.1" id="Capa_1" xmlns="http://www.w3.org/2000/svg" xmlns:xlink="http://www.w3.org/1999/xlink" x="0px" y="0px"
	 viewBox="0 0 225.5 79.6" style="enable-background:new 0 0 225.5 79.6;" xml:space="preserve">
<style type="text/css">
	.st0{fill:#FFFFFF;}
</style>
<path d="M90.5,31.9c0,0.7-0.2,1.2-0.6,1.5c-0.4,0.3-0.8,0.4-1.4,0.4c-0.5,0-1-0.1-1.4-0.4c-0.4-0.3-0.6-0.7-0.6-1.5
	c-1.6,1.2-3.5,1.8-5.7,1.8c-2.6,0-4.9-0.9-6.8-2.8c-1.9-1.9-2.8-4.1-2.8-6.8c0-2.6,0.9-4.9,2.8-6.8c1.9-1.9,4.1-2.8,6.8-2.8
	s4.9,0.9,6.8,2.8c1.8,1.8,2.8,4.1,2.8,6.7V31.9z M84.9,20.2c-1.1-1.1-2.5-1.7-4-1.7c-1.6,0-2.9,0.6-4,1.7c-1.1,1.1-1.7,2.4-1.7,4
	c0,1.6,0.6,2.9,1.7,4c1.1,1.1,2.4,1.7,4,1.7c1.6,0,2.9-0.6,4-1.7c0.9-0.9,1.5-2.1,1.6-3.3v-0.7c0-0.1,0-0.2,0-0.3
	C86.5,22.4,85.9,21.2,84.9,20.2z"/>
<path d="M97.7,9.6c0.4,0.4,0.6,0.8,0.6,1.4v20.9c0,0.5-0.2,1-0.6,1.4s-0.8,0.6-1.4,0.6c-0.5,0-1-0.2-1.4-0.6
	c-0.4-0.4-0.6-0.8-0.6-1.4V11c0-0.5,0.2-1,0.6-1.4C95.3,9.2,95.8,9,96.3,9C96.9,9,97.3,9.2,97.7,9.6z"/>
<path d="M119.3,33.8c-0.5,0-1-0.2-1.4-0.6c-0.4-0.4-0.6-0.9-0.6-1.6v-7.4c0-0.1,0-0.2,0-0.3c-0.1-1.4-0.6-2.6-1.6-3.6
	c-1.1-1.1-2.5-1.7-4-1.7h-0.1c-1.6,0-2.9,0.6-4,1.7c-1,1-1.6,2.2-1.6,3.6c0,0.1,0,0.2,0,0.3v7.4c0,0.7-0.2,1.3-0.6,1.6
	c-0.4,0.4-0.8,0.6-1.4,0.6c-0.5,0-1-0.2-1.4-0.6c-0.4-0.4-0.6-0.9-0.6-1.7v-7.4c0-2.6,1-4.8,2.8-6.7c1.7-1.7,4-2.7,6.7-2.8h0.3
	c2.7,0.2,4.9,1.1,6.7,2.8c0.3,0.3,0.6,0.6,0.9,1c0.3-0.3,0.5-0.7,0.9-1c1.7-1.7,4-2.7,6.7-2.8h0.3c2.7,0.2,4.9,1.1,6.7,2.8
	c1.8,1.8,2.8,4.1,2.8,6.7v7.4c0,0.7-0.2,1.3-0.6,1.7c-0.4,0.4-0.8,0.6-1.4,0.6s-1-0.2-1.4-0.6c-0.4-0.4-0.6-0.9-0.6-1.6v-7.4
	c0-0.1,0-0.2,0-0.3c-0.1-1.4-0.6-2.6-1.6-3.6c-1.1-1.1-2.5-1.7-4-1.7H127c-1.6,0-2.9,0.6-4,1.7c-1,1-1.6,2.2-1.6,3.6
	c0,0.1,0,0.2,0,0.3v7.4c0,0.7-0.2,1.3-0.6,1.6C120.3,33.6,119.9,33.8,119.3,33.8L119.3,33.8z"/>
<path d="M159.6,31.9c0,0.7-0.2,1.2-0.6,1.5c-0.4,0.3-0.8,0.4-1.4,0.4c-0.5,0-1-0.1-1.4-0.4c-0.4-0.3-0.6-0.7-0.6-1.5
	c-1.6,1.2-3.5,1.8-5.7,1.8c-2.6,0-4.9-0.9-6.8-2.8c-1.9-1.9-2.8-4.1-2.8-6.8c0-2.6,0.9-4.9,2.8-6.8c1.9-1.9,4.1-2.8,6.8-2.8
	s4.9,0.9,6.8,2.8c1.8,1.8,2.8,4.1,2.8,6.7V31.9z M154,20.2c-1.1-1.1-2.5-1.7-4-1.7c-1.6,0-2.9,0.6-4,1.7c-1.1,1.1-1.7,2.4-1.7,4
	c0,1.6,0.6,2.9,1.7,4c1.1,1.1,2.4,1.7,4,1.7c1.6,0,2.9-0.6,4-1.7c0.9-0.9,1.5-2.1,1.6-3.3v-0.7c0-0.1,0-0.2,0-0.3
	C155.6,22.4,155.1,21.2,154,20.2z"/>
<path d="M179.8,17.5C179.8,17.5,179.8,17.5,179.8,17.5c0.4,0.4,0.6,0.8,0.6,1.4c0,0.5-0.2,1-0.6,1.4c-0.4,0.4-0.8,0.6-1.4,0.6
	c-0.5,0-1-0.2-1.4-0.6h0c-1.1-1.1-2.4-1.6-4-1.6c-1.6,0-2.9,0.6-4,1.7c-1.1,1.1-1.7,2.4-1.7,4c0,1.6,0.6,2.9,1.7,4
	c1.1,1.1,2.5,1.7,4,1.7c1.6,0,2.9-0.5,4-1.6c0,0,0,0,0,0c0.4-0.4,0.8-0.6,1.4-0.6c0.5,0,1,0.2,1.4,0.6c0.4,0.4,0.6,0.8,0.6,1.4
	c0,0.5-0.2,1-0.6,1.4c0,0,0,0,0,0c-1.9,1.9-4.1,2.8-6.7,2.8s-4.9-0.9-6.8-2.8c-1.9-1.9-2.8-4.1-2.8-6.8c0-2.6,0.9-4.9,2.8-6.8
	c1.9-1.9,4.1-2.8,6.8-2.8S177.9,15.6,179.8,17.5L179.8,17.5z"/>
<path d="M194.9,19c-0.7-0.3-1.5-0.5-2.3-0.5c-1.6,0-2.9,0.6-4,1.7c-1.1,1.1-1.7,2.4-1.7,4c0,1.6,0.6,2.9,1.7,4
	c1.1,1.1,2.5,1.7,4,1.7c1.6,0,2.9-0.5,4-1.6c0,0,0,0,0,0c0.4-0.4,0.8-0.6,1.4-0.6c0.5,0,1,0.2,1.4,0.6c0.4,0.4,0.6,0.8,0.6,1.4
	c0,0.5-0.2,1-0.6,1.4c0,0,0,0,0,0c-1.9,1.9-4.1,2.8-6.7,2.8s-4.9-0.9-6.8-2.8c-1.9-1.9-2.8-4.1-2.8-6.8c0-2.6,0.9-4.9,2.8-6.8
	c1.9-1.9,4.1-2.8,6.8-2.8s4.9,0.9,6.7,2.8l0,0c0,0,0,0,0,0c0.4,0.4,0.6,0.8,0.6,1.4c0,0.5-0.2,1-0.6,1.3l-5.5,5.4
	c-0.4,0.4-0.8,0.6-1.4,0.6c-0.5,0-1-0.2-1.4-0.6c-0.4-0.4-0.6-0.9-0.6-1.4c0-0.5,0.2-1,0.6-1.4L194.9,19z M191.4,13.8
	c-0.3,0.2-0.6,0.3-1,0.3c-0.2,0-0.4,0-0.5-0.1c-0.5-0.1-0.9-0.4-1.2-0.9c-0.2-0.3-0.3-0.6-0.3-1c0-0.2,0-0.4,0.1-0.5
	c0.1-0.5,0.4-0.9,0.9-1.2l5.1-3c0.3-0.2,0.6-0.3,1-0.3c0.2,0,0.3,0,0.5,0.1c0.5,0.1,0.9,0.4,1.2,0.9c0.2,0.3,0.3,0.6,0.3,0.9
	c0,0.2,0,0.4-0.1,0.5c-0.1,0.5-0.4,0.9-0.9,1.2L191.4,13.8z"/>
<path d="M213.8,14.6c2.7,0.2,4.9,1.1,6.7,2.8c1.8,1.8,2.8,4.1,2.8,6.7v7.4c0,0.7-0.2,1.3-0.6,1.7c-0.4,0.4-0.8,0.6-1.4,0.6
	c-0.5,0-1-0.2-1.4-0.6c-0.4-0.4-0.6-0.9-0.6-1.6v-7.4c0-0.1,0-0.2,0-0.3c-0.1-1.4-0.6-2.6-1.6-3.6c-1.1-1.1-2.5-1.7-4-1.7h-0.1
	c-1.6,0-2.9,0.6-4,1.7c-1,1-1.6,2.2-1.6,3.6c0,0.1,0,0.2,0,0.3v7.4c0,0.7-0.2,1.3-0.6,1.6c-0.4,0.4-0.8,0.6-1.4,0.6
	c-0.5,0-1-0.2-1.4-0.6c-0.4-0.4-0.6-0.9-0.6-1.7v-7.4c0-2.6,1-4.8,2.8-6.7c1.7-1.7,4-2.7,6.7-2.8H213.8z"/>
<path class="st0" d="M90.5,57.2c0,2.6-1,4.8-2.8,6.7c-1.9,1.9-4.1,2.8-6.8,2.8s-4.9-0.9-6.8-2.8c-1.9-1.9-2.8-4.1-2.8-6.8
	c0-2.6,0.9-4.9,2.8-6.8c1.9-1.9,4.1-2.8,6.8-2.8c2.1,0,4,0.6,5.7,1.8v-5.6c0-0.5,0.2-1,0.6-1.4c0.4-0.4,0.8-0.6,1.4-0.6
	c0.5,0,1,0.2,1.4,0.6c0.4,0.4,0.6,0.8,0.6,1.4V57.2z M86.6,57.5c0-0.1,0-0.2,0-0.3v-0.7c-0.1-1.3-0.7-2.4-1.6-3.3
	c-1.1-1.1-2.5-1.7-4-1.7c-1.6,0-2.9,0.6-4,1.7c-1.1,1.1-1.7,2.5-1.7,4c0,1.6,0.6,2.9,1.7,4c1.1,1.1,2.4,1.7,4,1.7
	c1.6,0,2.9-0.6,4-1.7C85.9,60.2,86.5,59,86.6,57.5z"/>
<path class="st0" d="M96.3,45.7c-0.5,0-1-0.2-1.4-0.6c-0.4-0.4-0.6-0.8-0.6-1.4c0-0.5,0.2-1,0.6-1.4c0.4-0.4,0.8-0.6,1.4-0.6
	c0.5,0,1,0.2,1.4,0.6c0.4,0.4,0.6,0.8,0.6,1.4c0,0.5-0.2,1-0.6,1.4S96.9,45.7,96.3,45.7z M96.3,66.7c-0.5,0-1-0.2-1.4-0.6
	c-0.4-0.4-0.6-0.8-0.6-1.4V49.4c0-0.5,0.2-1,0.6-1.4c0.4-0.4,0.8-0.6,1.4-0.6c0.5,0,1,0.2,1.4,0.6c0.4,0.4,0.6,0.8,0.6,1.4v15.3
	c0,0.5-0.2,1-0.6,1.4C97.3,66.5,96.9,66.7,96.3,66.7z"/>
<path class="st0" d="M117.3,64.9c-1.6,1.2-3.5,1.8-5.7,1.8c-2.6,0-4.9-0.9-6.8-2.8c-1.9-1.9-2.8-4.1-2.8-6.8c0-2.6,0.9-4.9,2.8-6.8
	c1.9-1.9,4.1-2.8,6.8-2.8s4.9,0.9,6.8,2.8c1.9,1.9,2.8,4.1,2.8,6.7h0v7.6c0,0.1,0,0.2,0,0.3c-0.1,2.5-1,4.7-2.8,6.5
	c-1.9,1.9-4.1,2.8-6.8,2.8h-0.1c-0.5,0-1-0.2-1.4-0.6c-0.4-0.4-0.6-0.8-0.6-1.4c0-0.5,0.2-1,0.6-1.4c0.4-0.4,0.8-0.6,1.4-0.6
	c0.1,0,0.2,0,0.3,0c1.5-0.1,2.8-0.6,3.8-1.7C116.7,67.7,117.3,66.4,117.3,64.9z M111.6,51.4c-1.6,0-2.9,0.6-4,1.7
	c-1.1,1.1-1.7,2.4-1.7,4c0,1.6,0.6,2.9,1.7,4c1.1,1.1,2.5,1.7,4,1.7c1.6,0,2.9-0.6,4-1.7c1.1-1.1,1.7-2.5,1.7-4c0-1.6-0.6-2.9-1.7-4
	C114.5,52,113.2,51.4,111.6,51.4z"/>
<path class="st0" d="M127,45.7c-0.5,0-1-0.2-1.4-0.6c-0.4-0.4-0.6-0.8-0.6-1.4c0-0.5,0.2-1,0.6-1.4c0.4-0.4,0.8-0.6,1.4-0.6
	c0.5,0,1,0.2,1.4,0.6c0.4,0.4,0.6,0.8,0.6,1.4c0,0.5-0.2,1-0.6,1.4C128,45.5,127.6,45.7,127,45.7z M127,66.7c-0.5,0-1-0.2-1.4-0.6
	c-0.4-0.4-0.6-0.8-0.6-1.4V49.4c0-0.5,0.2-1,0.6-1.4c0.4-0.4,0.8-0.6,1.4-0.6c0.5,0,1,0.2,1.4,0.6c0.4,0.4,0.6,0.8,0.6,1.4v15.3
	c0,0.5-0.2,1-0.6,1.4C128,66.5,127.6,66.7,127,66.7z"/>
<path class="st0" d="M137.3,47.5v-3.6c0-0.5,0.2-1,0.6-1.4c0.4-0.4,0.8-0.6,1.4-0.6c0.5,0,1,0.2,1.4,0.6c0.4,0.4,0.6,0.8,0.6,1.4
	v3.6h2.1c0.5,0,1,0.2,1.4,0.6c0.4,0.4,0.6,0.8,0.6,1.4c0,0.5-0.2,1-0.6,1.4c-0.4,0.4-0.8,0.6-1.4,0.6h-2.1v13.3c0,0.5-0.2,1-0.6,1.4
	c-0.4,0.4-0.8,0.6-1.4,0.6c-0.5,0-1-0.2-1.4-0.6c-0.4-0.4-0.6-0.8-0.6-1.4V51.4h-2.2c-0.5,0-1-0.2-1.4-0.6c-0.4-0.4-0.6-0.8-0.6-1.4
	c0-0.5,0.2-1,0.6-1.4c0.4-0.4,0.8-0.6,1.4-0.6H137.3z"/>
<path class="st0" d="M165.2,64.8c0,0.7-0.2,1.2-0.6,1.5c-0.4,0.3-0.8,0.4-1.4,0.4c-0.5,0-1-0.1-1.4-0.4c-0.4-0.3-0.6-0.7-0.6-1.5
	c-1.6,1.2-3.5,1.8-5.7,1.8c-2.6,0-4.9-0.9-6.8-2.8c-1.9-1.9-2.8-4.1-2.8-6.8c0-2.6,0.9-4.9,2.8-6.8c1.9-1.9,4.1-2.8,6.8-2.8
	s4.9,0.9,6.8,2.8c1.8,1.8,2.8,4.1,2.8,6.7V64.8z M159.7,53.1c-1.1-1.1-2.5-1.7-4-1.7c-1.6,0-2.9,0.6-4,1.7c-1.1,1.1-1.7,2.4-1.7,4
	c0,1.6,0.6,2.9,1.7,4c1.1,1.1,2.4,1.7,4,1.7c1.6,0,2.9-0.6,4-1.7c0.9-0.9,1.5-2.1,1.6-3.3v-0.7c0-0.1,0-0.2,0-0.3
	C161.2,55.3,160.7,54.1,159.7,53.1z"/>
<path class="st0" d="M172.4,42.5c0.4,0.4,0.6,0.8,0.6,1.4v20.9c0,0.5-0.2,1-0.6,1.4c-0.4,0.4-0.8,0.6-1.4,0.6c-0.5,0-1-0.2-1.4-0.6
	c-0.4-0.4-0.6-0.8-0.6-1.4V43.9c0-0.5,0.2-1,0.6-1.4c0.4-0.4,0.8-0.6,1.4-0.6C171.6,41.9,172.1,42.1,172.4,42.5z"/>
<g>
	<g>
		<path class="st0" d="M47.7,64.5H10.4c-2.8,0-5-2-4.8-4.4l2.6-36.7h41.7l2.6,36.7C52.6,62.5,50.4,64.5,47.7,64.5z"/>
		<path class="st0" d="M47.7,66.7H10.4c-2.1,0-4-0.8-5.3-2.2C4,63.2,3.4,61.6,3.5,60L6,23.3c0.1-1.1,1-2,2.2-2h41.7
			c1.1,0,2.1,0.9,2.2,2L54.6,60c0.1,1.6-0.5,3.2-1.6,4.5C51.6,65.9,49.7,66.7,47.7,66.7z M10.2,25.6L7.8,60.3c0,0.6,0.2,1,0.5,1.2
			c0.5,0.5,1.3,0.9,2.2,0.9h37.2c0.9,0,1.6-0.3,2.2-0.9c0.2-0.3,0.5-0.7,0.5-1.2l-2.4-34.7H10.2z"/>
	</g>
	<g>
		<path class="st0" d="M40.8,21.5h-4.3c0-4.1-3.3-7.5-7.5-7.5c-4.1,0-7.5,3.3-7.5,7.5h-4.3C17.3,15,22.6,9.7,29,9.7
			S40.8,15,40.8,21.5z"/>
	</g>
</g>
</svg>
